# xmcd
#
# Track frame offsets:
#	150
#	15600
#	33075
#	44100
#	61725
#	81450
#	101625
#	120825
#	138300
#	154500
#	173775
#	192825
#	212325
#	227550
#	250950
#	270225
#
# Disc length: 3623 seconds
#
# Revision: 1
# Processed by: cddbd v1.5.2PL0 Copyright (c) Steve Scherf et al.
# Submitted via: audiograbber 1.83.01
#
DISCID=c60e2510
DTITLE=Fire Flies Faith Hill - AKS10003
DYEAR=2004
DGENRE=Karaoke
TTITLE0=Hill, Faith - Sunshine And Summertime
TTITLE1=Hill, Faith - Mississippi
TTITLE2=Hill, Faith - Dearly Beloved
TTITLE3=Hill, Faith - I Ain't Gonna Take It Anymore
TTITLE4=Hill, Faith - Stealing Kisses
TTITLE5=Hill, Faith - Fireflies
TTITLE6=Hill, Faith - Like We Never Loved At All (Solo)
TTITLE7=Hill, Faith - I Want You
TTITLE8=Hill, Faith - The Lucky One
TTITLE9=Hill, Faith - If You Ask
TTITLE10=Hill, Faith - We've Got Nothing But Love To Prove
TTITLE11=Hill, Faith - You Stay With Me
TTITLE12=Hill, Faith - Wish For You
TTITLE13=Hill, Faith - Paris
TTITLE14=Hill, Faith - Like We Never Loved At All (Duet)
TTITLE15=Data - Data Track
EXTD=
EXTT0=
EXTT1=
EXTT2=
EXTT3=
EXTT4=
EXTT5=
EXTT6=
EXTT7=
EXTT8=
EXTT9=
EXTT10=
EXTT11=
EXTT12=
EXTT13=
EXTT14=
EXTT15=
PLAYORDER=
